<svg
  width="142"
  height="175"
  viewBox="0 0 142 175"
  xmlns="http://www.w3.org/2000/svg"
>
  <path
    d="M4.18538 114.277L21.43 3.36452C21.5537 2.5418 21.9339 1.77909 22.5164 1.18506C23.0989 0.591026 23.854 0.195976 24.6741 0.056188C25.4943 -0.0836001 26.3376 0.0390046 27.084 0.406535C27.8304 0.774065 28.4418 1.36777 28.831 2.10307L47.3736 36.8913L4.18538 114.277ZM69.5 92C69.5 92 69.5 90 71.5 90H118.438L110.234 39.1153C110.122 38.3938 109.811 37.7179 109.337 37.163C108.862 36.6081 108.243 36.196 107.547 35.9728C106.852 35.7497 106.109 35.7242 105.4 35.8993C104.691 36.0744 104.045 36.4431 103.534 36.9642L0 141.205L57.2829 173.485C59.0508 174.478 61.0445 175 63.0724 175C65.1002 175 67.094 174.478 68.8619 173.485L97.7513 157.341H71.5C69.5 157.341 69.5 155.34 69.5 155.34V92ZM80.091 52.1162L66.8203 26.7268C66.4854 26.0883 65.9823 25.5536 65.3654 25.1805C64.7485 24.8075 64.0413 24.6102 63.3203 24.6102C62.5993 24.6102 61.8921 24.8075 61.2752 25.1805C60.6583 25.5536 60.1552 26.0883 59.8203 26.7268L1.5604 131.135L80.091 52.1162Z"
    fill="#fbdb00"
    id="firebase"
  />
  <path
    d="M102 155.5V170L113 155.5H139.5C139.5 155.5 141.5 155.5 141.5 153.5V94C141.5 92 139.5 92 139.5 92H73.5C73.5 92 71.5 92 71.5 94V153.5C71.5 153.5 71.5 155.5 73.5 155.5H102Z"
    fill="#0a1735"
    id="chat"
  />
</svg>
